<svg width="11" height="13" viewBox="0 0 11 13" fill="none" xmlns="http://www.w3.org/2000/svg">
<path d="M5.5 11.2134L8.18125 8.53216C8.71149 8.00187 9.07257 7.32626 9.21884 6.59076C9.36511 5.85526 9.29 5.0929 9.00301 4.40009C8.71601 3.70727 8.23003 3.11512 7.6065 2.6985C6.98297 2.28189 6.24991 2.05952 5.5 2.05952C4.7501 2.05952 4.01703 2.28189 3.39351 2.6985C2.76998 3.11512 2.28399 3.70727 1.997 4.40009C1.71 5.0929 1.63489 5.85526 1.78116 6.59076C1.92743 7.32626 2.28852 8.00187 2.81875 8.53216L5.5 11.2134ZM5.5 12.7452L2.05284 9.29808C1.37106 8.6163 0.906768 7.74765 0.71867 6.802C0.530571 5.85634 0.627116 4.87615 0.996095 3.98536C1.36507 3.09457 1.98992 2.3332 2.7916 1.79754C3.59329 1.26187 4.53582 0.975954 5.5 0.975954C6.46418 0.975954 7.40671 1.26187 8.2084 1.79754C9.01009 2.3332 9.63493 3.09457 10.0039 3.98536C10.3729 4.87615 10.4694 5.85634 10.2813 6.802C10.0932 7.74765 9.62894 8.6163 8.94717 9.29808L5.5 12.7452ZM5.5 6.93425C5.78732 6.93425 6.06287 6.82011 6.26603 6.61694C6.4692 6.41378 6.58334 6.13823 6.58334 5.85091C6.58334 5.56359 6.4692 5.28804 6.26603 5.08488C6.06287 4.88172 5.78732 4.76758 5.5 4.76758C5.21268 4.76758 4.93713 4.88172 4.73397 5.08488C4.53081 5.28804 4.41667 5.56359 4.41667 5.85091C4.41667 6.13823 4.53081 6.41378 4.73397 6.61694C4.93713 6.82011 5.21268 6.93425 5.5 6.93425ZM5.5 8.01758C4.92537 8.01758 4.37427 7.78931 3.96794 7.38298C3.56161 6.97665 3.33334 6.42555 3.33334 5.85091C3.33334 5.27628 3.56161 4.72518 3.96794 4.31885C4.37427 3.91252 4.92537 3.68425 5.5 3.68425C6.07464 3.68425 6.62574 3.91252 7.03207 4.31885C7.4384 4.72518 7.66667 5.27628 7.66667 5.85091C7.66667 6.42555 7.4384 6.97665 7.03207 7.38298C6.62574 7.78931 6.07464 8.01758 5.5 8.01758Z" fill="#6C7C8E" fill-opacity="0.9"/>
</svg>
