<svg width="13" height="14" viewBox="0 0 13 14" fill="none" xmlns="http://www.w3.org/2000/svg">
<g clip-path="url(#clip0_0_772)">
<path d="M2.80606 0.914702C3.10234 0.950475 3.34106 1.10268 3.54591 1.30315C4.13644 1.88126 4.73543 2.4506 5.29243 3.06213C5.75259 3.566 5.74616 4.22342 5.29514 4.7391C4.98145 5.08967 4.64938 5.42346 4.30032 5.73908C4.23463 5.79983 4.22041 5.84471 4.26138 5.93043C4.59998 6.63308 5.08622 7.2274 5.61376 7.79167C6.15553 8.36911 6.74842 8.88547 7.41784 9.31037C7.60306 9.42781 7.80351 9.5213 7.99347 9.63199C8.06119 9.6708 8.08455 9.6276 8.11909 9.59318C8.40758 9.30598 8.69472 9.01945 8.98422 8.73191C9.20736 8.5112 9.45827 8.33368 9.77689 8.28137C10.2032 8.21185 10.5672 8.34684 10.8682 8.64147C11.438 9.19832 12.0023 9.7608 12.5612 10.3289C13.1125 10.8895 13.149 11.5601 12.6344 12.1554C12.2472 12.6045 11.8299 13.0269 11.3853 13.4196C10.9234 13.8246 10.3556 13.9306 9.75522 13.883C8.79664 13.8067 7.91965 13.4679 7.0701 13.0443C5.59714 12.3132 4.26971 11.3214 3.15246 10.1173C1.95956 8.83147 0.976928 7.40896 0.370151 5.74954C0.142271 5.12654 -0.0155182 4.49004 0.00107337 3.82013C0.0146175 3.2572 0.198141 2.76143 0.596338 2.35476C0.937425 2.00692 1.28224 1.66246 1.63077 1.32137C1.85448 1.10192 2.13785 0.952672 2.44579 0.89209H2.67502C2.71464 0.923476 2.76543 0.889728 2.80606 0.914702Z" fill="#6C7C8E"/>
<path d="M2.80553 0.914702C2.7593 0.922801 2.71408 0.926514 2.67493 0.89209H2.80182C2.80047 0.895864 2.8001 0.89992 2.80075 0.903876C2.8014 0.907832 2.80305 0.911557 2.80553 0.914702Z" fill="#6C7C8E"/>
<path d="M0.660653 3.84104C0.648463 3.45664 0.81641 3.05369 1.16179 2.71957C1.4601 2.43102 1.75062 2.1337 2.04622 1.84143C2.09421 1.79351 2.14497 1.74844 2.19825 1.70644C2.46913 1.49585 2.7644 1.49854 3.01869 1.72736C3.39318 2.06519 3.73923 2.43338 4.09545 2.78943C4.32366 3.0169 4.55527 3.24133 4.77265 3.47791C5.0266 3.7533 5.02999 4.05163 4.77875 4.32871C4.46723 4.67497 4.13066 4.99795 3.78867 5.31519C3.49375 5.58889 3.46158 5.77113 3.62716 6.1373C3.98438 6.92635 4.51735 7.59187 5.10144 8.21994C5.73598 8.90233 6.43757 9.50644 7.24107 9.98533C7.41884 10.0913 7.60372 10.1878 7.78825 10.2806C8.04864 10.4136 8.27178 10.3778 8.48307 10.1693C8.8 9.85675 9.11355 9.54086 9.43116 9.22801C9.48992 9.16661 9.55368 9.11017 9.62179 9.05927C9.87947 8.87736 10.1636 8.88377 10.387 9.10246C10.9752 9.67619 11.5593 10.256 12.1332 10.8446C12.4041 11.1216 12.4041 11.4436 12.1413 11.7295C11.7824 12.1182 11.414 12.4999 11.0314 12.8654C10.6633 13.2164 10.2005 13.2704 9.71355 13.2205C8.9175 13.1381 8.18544 12.8573 7.47505 12.5118C6.04079 11.8172 4.74843 10.8631 3.66373 9.69813C2.54803 8.49769 1.61653 7.17643 1.03549 5.6331C0.829277 5.08569 0.6637 4.52783 0.660653 3.84104Z" fill="#EFF6FF"/>
</g>
<defs>
<clipPath id="clip0_0_772">
<rect width="13" height="13" fill="white" transform="translate(0 0.89209)"/>
</clipPath>
</defs>
</svg>
